<svg width="24" height="20" viewBox="0 0 24 20" fill="none" xmlns="http://www.w3.org/2000/svg">
<g filter="url(#filter0_d_107_907)">
<path d="M18.77 7H14.54L16.06 2.06C16.38 1.03 15.54 0 14.38 0C13.8 0 13.24 0.24 12.86 0.65L7 7H3V17H7H8H17.43C18.49 17 19.41 16.33 19.62 15.39L20.96 9.39C21.23 8.15 20.18 7 18.77 7ZM7 16H4V8H7V16ZM19.98 9.17L18.64 15.17C18.54 15.65 18.03 16 17.43 16H8V7.39L13.6 1.33C13.79 1.12 14.08 1 14.38 1C14.64 1 14.88 1.11 15.01 1.3C15.08 1.4 15.16 1.56 15.1 1.77L13.58 6.71L13.18 8H14.53H18.76C19.17 8 19.56 8.17 19.79 8.46C19.92 8.61 20.05 8.86 19.98 9.17Z" fill="white"/>
</g>
<defs>
<filter id="filter0_d_107_907" x="-1" y="0" width="26.0025" height="25" filterUnits="userSpaceOnUse" color-interpolation-filters="sRGB">
<feFlood flood-opacity="0" result="BackgroundImageFix"/>
<feColorMatrix in="SourceAlpha" type="matrix" values="0 0 0 0 0 0 0 0 0 0 0 0 0 0 0 0 0 0 127 0" result="hardAlpha"/>
<feOffset dy="4"/>
<feGaussianBlur stdDeviation="2"/>
<feComposite in2="hardAlpha" operator="out"/>
<feColorMatrix type="matrix" values="0 0 0 0 0 0 0 0 0 0 0 0 0 0 0 0 0 0 0.25 0"/>
<feBlend mode="normal" in2="BackgroundImageFix" result="effect1_dropShadow_107_907"/>
<feBlend mode="normal" in="SourceGraphic" in2="effect1_dropShadow_107_907" result="shape"/>
</filter>
</defs>
</svg>
